/* XPM */
static char *_4baf64435d44bdcaee8076f4550d00f6xv83WqDc9GY4bqP[] = {
/* columns rows colors chars-per-pixel */
"80 80 164 2 ",
"   c #162601",
".  c #1F3401",
"X  c #253E04",
"o  c #293C05",
"O  c #2A3E05",
"+  c #2D3C05",
"@  c #333607",
"#  c #3A3207",
"$  c #3D3107",
"%  c #333907",
"&  c #363807",
"*  c #303C07",
"=  c #323B08",
"-  c #4F2F0B",
";  c #502E0B",
":  c #532B0C",
">  c #502F0D",
",  c #542C0E",
"<  c #592F0E",
"1  c #4D340F",
"2  c #50300E",
"3  c #50310F",
"4  c #59300F",
"5  c #542E10",
"6  c #552F11",
"7  c #4F3612",
"8  c #4B3C13",
"9  c #533313",
"0  c #563012",
"q  c #503713",
"w  c #573014",
"e  c #543414",
"r  c #553616",
"t  c #5B3313",
"y  c #5C3312",
"u  c #593712",
"i  c #5E3413",
"p  c #583115",
"a  c #593317",
"s  c #5F3515",
"d  c #523915",
"f  c #573B14",
"g  c #573817",
"h  c #5A3814",
"j  c #5C3915",
"k  c #5E3B17",
"l  c #593D15",
"z  c #5A3418",
"x  c #5B3519",
"c  c #5D371B",
"v  c #563C19",
"b  c #593919",
"n  c #5A3A1B",
"m  c #5F381D",
"M  c #5C3C1D",
"N  c #613716",
"B  c #633918",
"V  c #60391A",
"C  c #663B19",
"Z  c #613A1F",
"A  c #653F1F",
"S  c #683D1B",
"D  c #274101",
"F  c #264005",
"G  c #274105",
"H  c #284206",
"J  c #294307",
"K  c #2A4407",
"L  c #2C4A04",
"P  c #2D4B04",
"I  c #2E4C04",
"U  c #2F4D05",
"Y  c #2C400F",
"T  c #364405",
"R  c #394206",
"E  c #334A05",
"W  c #304E06",
"Q  c #344C06",
"!  c #3E4E06",
"~  c #334B0D",
"^  c #335403",
"/  c #345701",
"(  c #365204",
")  c #335404",
"_  c #335504",
"`  c #345604",
"'  c #355705",
"]  c #395104",
"[  c #365806",
"{  c #375906",
"}  c #395E03",
"|  c #395F03",
" . c #3C5D04",
".. c #39560C",
"X. c #3E5F0B",
"o. c #3E6603",
"O. c #3A6004",
"+. c #3B6004",
"@. c #3F6704",
"#. c #3F6803",
"$. c #414D06",
"%. c #435805",
"&. c #494515",
"*. c #4C4718",
"=. c #484B19",
"-. c #4B4E1C",
";. c #564614",
":. c #5B4015",
">. c #584315",
",. c #5C4116",
"<. c #5B421B",
"1. c #5C4618",
"2. c #594A18",
"3. c #5E481A",
"4. c #46521A",
"5. c #46561C",
"6. c #4E5518",
"7. c #4B531E",
"8. c #415B1C",
"9. c #455A1D",
"0. c #435D1E",
"q. c #624314",
"w. c #66411B",
"e. c #60411D",
"r. c #62461C",
"t. c #66471D",
"y. c #6F421F",
"u. c #6C461F",
"i. c #436E02",
"p. c #436F03",
"a. c #466E0B",
"s. c #4A750A",
"d. c #4D7B09",
"f. c #4E7B09",
"g. c #47661B",
"h. c #49671D",
"j. c #4B691F",
"k. c #4E701B",
"l. c #507617",
"z. c #50721E",
"x. c #51721E",
"c. c #53781B",
"v. c #5F4620",
"b. c #475C20",
"n. c #455F20",
"m. c #4B5820",
"M. c #4A5D22",
"N. c #674122",
"B. c #644522",
"V. c #6A4425",
"C. c #684826",
"Z. c #6E4729",
"A. c #684E2A",
"S. c #734521",
"D. c #714B2D",
"F. c #754E31",
"G. c #725331",
"H. c #765735",
"J. c #795335",
"K. c #476122",
"L. c #4A6325",
"P. c #4D6B21",
"I. c #518008",
"U. c #518108",
/* pixels */
"r d r 6 B.G.z z x z 6 6 5 < i t a x x Z a a z e w c Z x b k z z Z Z V x x 6 6 z m c Z m Z x z c z c c c c c c c Z Z c Z w w c Z z z e 7 x m Z x c x x c x Z Z c ",
"b a 6 , <.A.z B C 6 6 6 , < < < 1 9 q e Z.V.0 0 w z S s a k 6 w Z c J.D.r e 6 r r z c x x x z < 6 6 6 z D.D.z z c x x c w 5 6 w N N , 0 x x z z D.D.z x Z Z S S ",
"= =.*.6 e r r f k z a a , ; 5 , , 9 1 1 i h 1 , z f l N 0 z 2 z N 6 J.Z.e 6 N u e z z g 6 5 < : 5 5 6 x V.F.x 6 z c z w 6 6 5 6 C C w w x x p g Z.D.z x x x S N ",
"& &.6.,.6 s l 8 7 z z V.t - 1 0 6 e 0 z u i 0 , 6 0 l l 2 0 e a N z z z 5 , < < 6 x 5 w 5 5 < 5 5 6 6 x a a z 6 w z 6 w Z A 6 w z z z z 5 0 0 5 6 z 6 z x 6 a 6 ",
"o -.6.:.:.q.k d x ,.l N.i 5 e 6 s B r 9 6 w a 6 5 - r v e , e 6 z z e.e u : : , x m g w z 6 6 6 6 6 5 5 x 6 6 6 6 6 6 w D.Z.6 w x a 6 , , , 6 6 w z w w C N < 6 ",
"X M.7.T  .%.R o M.P.1.z x b Z e 0 s 9 9 a z r b z 6 z V.w.z w e p z e.B.z 6 6 a x x r 6 6 z c z A.v.5 5 x w 5 6 < a i 6 z z 6 5 6 6 6 Z k , a 6 6 z z z C x x 6 ",
"X M.M.P _ ( ( L K.K.X X X X L.b.r z z z a :.;.b z z z t.t.t.3.v z e 6 g e g z z z z g e 6 z z c H.B.6 6 w x 6 6 z N < , w x z w 6 6 z Z.k w x a 5 , z z x x x x ",
"X L.L.X X X P P K.K.X X X X L.M.+ o X + + E Q F X + + o 9.P.3.<.n x 7 g g z k x x c M.m.x x z x x x w x x x z 5 e e 5 e z c c S.S 6 x c w c x z 6 6 z z x w w Z ",
"G K.L.X G X X X x.x.X X X X L.L.F H X o o o o F X o X F P.P.X X X I Q = + + o X X X L.L.n m Z m z z c 6 z g 6 : &.=.p b b m x B S c n b z z 5.4.x x Z Z z 6 a a ",
"G K.L.X P P X X x.x.G I L X L.L.. F X L L X F F X X X F P.P.X X G W Q + + X X X X X L.L.X X X X @ @ + $ # % @ @ m.9.m n M b e e x b 2.3.x x 9.5.z c Z Z Z.w.a a ",
"X L.L.X P P X X K.K.G I P X L.L.F F F P L X F F X L L Y O L.X X X J G X G X G P P X L.L.X X X X o o o @ @ X X X P.P.X X o o @ + o o P L X X L.L.Z Z V Z J.F.z a ",
"X K.L.G X X X X s.s.X I P X L.L.H F F F X X X L L L L Y Y K.F F G X X X X G X P P X L.L.K.X X X X X X X X X X X P.P.X X X X X X X X X X X X L.L.X X X X o ] ! # ",
"F K.j.G X X X X s.s.X _ _ X K.L.K.F F L L F F L L X X * Y Y K.F G X P P X G G X X X X L.K.X X X X X X X X X X     L.X X X X X X X X X X X X K.K.P ) P X X ! ! @ ",
"I P.j.F X X X X d.d.a.I P X G L.L.F F L L H H L ) L . Y Y Y K.P _ _ ' I X X X X X X X L.L.X X X X X X X X X X   . P.X X X X X X X X X X P P K.K.) | | ) X X + o ",
"L L.L.X X X X Y ..d.a.X X X X L.L.X X X F P L L _ L H W s.a.K.L ' _ L X X X X X X X X Y Y X L L X L P X X X X   . P.X ) ' X X X X X X X P P L.L.L P ) | L X X X ",
"L j.K.P.' P X Y Y a.a.G I P X L.K.F X X F P L L L F F L s.a.s.~ P P X X X X X X X P P * Y L _ L X L L X X X X   . P.L.) ) X X X X X X X X X L.L.X X X H L X X X ",
"L L b.P._ L X Y Y a.a.a.U L X K.K.U L X X F F _ _ F F X X a.s.s.L P G X X X X P I I I Y Y P L X X X X F F X X   s.s.L.X X X X X X X X X X X L.L.F F X X X X X X ",
"G G K.L.G L L Y Y L.a.a.X X L P.L.L } _ F F F L P F F F F Y s.s.a.X X X I _ P P I X X Y Y X ) [ X L L F F F X   a.a.K.F X X X X X X X F X X L.L.K.F X X X ^ ^ X ",
"F F K.L.G I I Y Y L.a.a.X X L z.P.F _ _ G P I F P P F F   ~ O.d.a.a.X L _ @.O.G F X L s.a.X _ _ X L U X G X     a.a.s.I X X X X X X G I L X X K.P.I X X X ^ ^ X ",
"X X L.P.I G Y Y O L.a.a.X X X P.P.X F X X _ _ F P P F F   . X...a.s.s.P P _ _ X X X ~ s.a.L.X X X X F F X X     F a.s.I X X X L L X X L L X L z.z.L X X X X X X ",
"X X L.P.L X Y Y X L.a.a.a.X X K.L.X L L ) @.| P F X X X   G O.~ X s.s.L ) P G X X X Y a.s.s.I I X X X P L X     G a.a.a._ ) X L L X X L L L F F P.X X X X X X X ",
"L L K.K.X G Y Y X K.K.a.a.X G K.L.X L L ) | ' P X L P     U X.Y * s.s.s._ P L L F F Y Y d.d.I L X X P ) L X     X L.a.a.) ) X X X X X L L L X . P.X X X X X X ) ",
"_ L K.K.F F Y Y X P.P.a.s.L G K.L.L ^ L X X P P X L P     P P.* ~ ' s.a.s.P P P _ | ~ Y s.s.a.X X F O.| X X     X K.a.a.X X X X X X L L X X   . P.X X X X X X ) ",
"L G L.K.X G Y Y X P.P.a.s.s.G L.L.P.) P X X L ' P X X     X h.~ ~ ~ G a.s.s.L I _ | ~ Y L.a.a.X L L ' ) X X     X K.a.a.a.G X X X L _ L X X     L.X X X X X X X ",
"G X L.L.X ....Y F L.L.X a.s.I X L.P.L X G ^ ^ P P F L .   G P.P.~ ..L F a.a.s.L X X Y Y L.a.s.s.L _ U F F L . . L L.L.a.a.F F F X L L X X X     L.X L L X X X X ",
"X X L.L.X ....F X K.K.F a.s.L G K.P.L L I ^ ^ G P ^ G G . X K.K.~ ..L X L s.a.a.F F Y ~ P.K.s.s.F L U F F L . . | ..* a.a.a.X X X X X X X X . . L.X I L X X X F ",
"X X L.K.F Y Y F X K.K.I L X X G b.L.X L I F X L ^ ^ X X | ) P.L.* Y Y F L L a.a.F F Y ~ P.P.s.s.s.X X X F F     _ ..Y G a.s._ L X X X X X X . . P.L X I _ L X F ",
"L X L.K.F Y Y X     P.c.| L X X K.L.X X X X X L L X   . ^ ^ P.K.F Y Y U L L L X F I ~ Y X P.P.d.d.X X X F U .   X Y Y I s.s._ L X X X X X X . . P.L X _ | L X X ",
"L X L.L.X K L X     K.P.' I X X L.L.X X X X X I L X     X X L.K.K.Y * U _ _ L F F ~ ~ Y F . . d.d.a.X X F . . . L * Y ~ s.s.s.F F F F X X   . . P.L X L L X F F ",
"X X L.K.X L L X     g.K.X F X X L.L.X X X X F ^ ^       G G X L.K.Y ~ .._ U L L F Y Y F F . F _ s.a.X X X . . U L P.~ Y X s.s.F F F F L L     L.P.L X X X X F F ",
"X X K.K.F X X X     P.P.X X X X P.j.H X X X X L ^ .   F G I L L.n.. ~ .._ _ _ L X ~ ~ X F X F L F F X F F . . F J U ~ Y F a.a.a.X F G L L     L.P.L X X X X X X ",
"X X K.g.F F X       P.P.X X X X P.j.I F F F X X L .   L I O.O.L.L.W ..~ _ O.U _ _ ~ ~ L L . . F F X X F F . . U U F Y Y X X a.a.G G X X L .   L.P.L L _ L X X X ",
"X X L.L.F F X     X L.L.F G F X L.P.L G G F P P X     L L ^ O.P.L.L ..~ ~ L F ' _ Y Y _ F . . G X X X X X . . I L X Y Y X X a.a.F F X X L .   P.P.X L _ L X F X ",
"X G L.K.X X X     X L.L.X G H G L.K.X G G G I I     X L X X O.l.K._ ' Y Y F F L U Y ~ _ . F j.g.G F X X X     G G s.s.Y X X X X F F P P X   . k.P.X X L L G I L ",
"X G K.P.L G X     G L.L.X P I G L.K.K.G G P P P .   ) | ^ L o.k.K._ _ Y Y . F L L X L _ F F j.L.P I X X L .   G X s.s.Y Y F X G F F L P X   . P.L.K.X L _ L L _ ",
"F X b.P.L F X     F L.L.P ^ L G F L.L.G G P P I .   H ^ ^ L ) P.K.F . F H F F F X X F U L F P.L.^ ^ F F L _ I G X a.a.a.Y L L X F F F F F     X L.K.X X L L X L ",
"F L P.K.F X F     X K.L.L ^ I F W k.P.I L X F F . . X X X X P P.K.K.L L L P F F F X F J . . K.P.^ P H H J I I K F U s.a.Y L L F F F F F F     X K.b.F X U L X X ",
"X L P.K.G X       F L.L.G I I G I k.P.P L L P   . X L X X X L L K.P.| O.O.' F F F F U _ .   n.z.^ F ` ` G G G H F I s.a.Y F F F X X F F F     F K.K.X X L L X X ",
"X X K.K.X X     G G L.L.F X G H X L.P.L L [ I     L L X X X X X K.P._ _ O.[ F F F J L _ . . P.x.^ F ^ ` G G G X G G a.a.a.F F F X X X X F     I P.K.F F F F X X ",
"X X L.L.X G     X X L.L.L L I I X L.P.L P W F     X G X F X X X P.P.X F L W F P L F F X   . P.L.L F I W G X J G X X L.a.a.F F F X X X X F     I s.a.X F F F X X ",
"F X L.a.a.F     G H L.L.P L ^ ^ X L.L.F U P X     G F F F F L L P.P.X X F H H L L G F       n.M.Y Y I I F F F F G X n.a.a.a.X X X X F F X     F a.a.X X F F X X ",
"F F F a.a.F     F H K.L.L.X L I G K.K.G U U       X F F F G P P K.L.J F H F L I F F L F   X n...Y Y L P F F I I F F n.K.a.a.X X X X F I L     X a.a.a.P I F X X ",
"F F a.a.a.K     G G X L.P.I H I I K.L.X F F     L L F F F X X X K.0.J J F L ^ L X G ^ F   . o +.Y Y I I F X _ _ X F g.K.a.a.X X X X X L L     X K.a.a.P P G G X ",
"F F s.s.n.      G X X L.j.^ G L I K.P.L F I .   L L X G X X X X K.h.U J F L L F G L ^ X X ~ X 9.Y Y Y H F F L L F F X K.a.a.a.G F X X F       X K.a.a.a.F G G X ",
"X F s.s.K.  F _ X X G K.P.I X X X K.P.L I _ .   F F F I L X X L s.s.P.P P X G H F I L   . I G L.L.Y Y F F F F F F F F L.Y a.a.F F X X F     I L K.L.a.a.X G I P ",
"F F a.a.L.  X _ X X P P.n.F F F F     I _ I X X F F F P P X X _ d.a.P.' W G G H F F X     X X L.L.Y Y I I F F K J F K L.Y a.a.F F F X X     L P b.K.a.a.G G I I ",
"F a.a.a.K.    G X X _ k.P.L F H F     P.I F X X F F F G G F L _ s.a.P.P F F H H F L I     L L L.L.Y Y L U X F F F K F L.Y a.a.s.I F X X     X X n.g.a.a.s.P X X ",
"X a.a.L.K.F X G X X P P.j.P F F F     K.F F X X F G P P F F I L s.s.a.J H H L L X I L . X L L M.K.Y Y Y X F F X F F X L.K.Y a.s.L F X X     X X n.K.G a.s.L X X ",
"X a.a.K.K.X F F X X X L.K.F X F L .   K.X X X X F F L ~ Y F F X L s.a.F K I _ L X X   . . G F K.b.g.o * F F F F F     L.L.Y @.s.a.X X X     F F P.g.G a.a.s.L X ",
"F a.a.K.K.X L L X X X L.L.X X F . .   K.X L L X X X X Y Y L L X X a.a.G G P I P P G     G G F F K.K.Y ~ K F H H F     L.K.Y Y a.a.X X X     X P j.j.X F a.s._ L ",
"a.a.a.L.L.X L L X X X L.L.Y Y X     n.K.X L L X X X L ~ Y ~ L F   a.a.X L _ P P _ L     G F X F L.L.Y ~ K F K F F     K.K.F F a.a.X X X     F P P.L.L.X a.a.s.L ",
"a.a.X L.K.G X X X X X L.L.Y Y X     K.K.X X L L X F L L Y Y X F   a.a.G _ } L L _ L     X X F F L.L.Y Y Y X X F F     K.K.F X K F F X X     F X X P.P.X X a.a.G ",
"a.a.X L.P.L G X L _ L L.L.~ ~ I .   L.L.X X L L X F F F Y Y F F . s.a.a.I P X L L X     X X G F K.K.. Y Y H F F F     K.K.K K U F F X X X X X G G P.k.I X s.s.X ",
"L I X K.P._ L X L _ I K.L.~ ~ ~ .   n.K.X X X L P P O._ Y ~ P F . . a.s.O._ G X L L     X X X X K.K.....Y F F F       L.K.F U L X X X X X G G P L L.P.L X L L X ",
"L L F P.P.L L X X X F K.L.X Y Y     b.K.X X F L L L o.o.~ ~ ~       a.s.@.O.G X L I     X X L I K.L._ ..Y F F F     F K.K.L L F F X X F F X X P ^ P.L.L L G G X ",
"X X X P.j.X X X G X X L.L.L.Y Y     L.L.X X F F F F L _ _ ~ Y     X s.s.L L G X G G     X X L I K.L.L.o Y Y L L   . K P.K.h.W F I L X F F F _ _ L P.L.L L X G X ",
"X X X P.P.F F F X X X X P.P.Y ~ . F K.L.X X X F F F L ~ ....* . . X s.s.a.X X F X       P L X L L P.P.L ~ ~ _ L   . I F K.n.G X L L F F X F _ ' F L.L.X X X X X ",
"X X X P.P.F F G _ _ X X P.k.~ ....F K.a.a.X X X F F L L L ~ X X . X K.a.s.I _ _ X     X L L X L L z.k.L ~ ~ L F     F F K.L.F L I X P P X X X F F L.L.X X F F F ",
"X X X a.a.F X G ^ _ G X L.P.I ~ ~ X X a.a.X X X X X F F X Y Y Y   X X a.s.P _ _ X     P L G P L X . . X Y ~ L X     F F d.d.L _ I X _ _ X F F F F K.L.X X F J F ",
"X X X a.a.X X X X X X X K.K.G * Y X X a.a.s.L X F F F F F F Y Y   X G a.s.I X X F     _ } I I P G     X Y ~ ~ X     F F d.U._ L F X P L X F P L G P.P.X X X X X ",
"F F F a.a.a.X X L L X X K.K.X Y Y L L L.a.s.L X F F F F F F Y Y   G P s.s.P P I F     P O._ F F . .   G F Y Y X     F F a.s.s.F F F F X X X L _ L P.g.F F X X X ",
"F F X L.a.a.G I _ L X X L.L.  Y X L L P.s.a.a.X F F L L X X Y Y   X L s.a.a.L P G X X F L L X X . . P.I F Y Y X     F F L.a.a.F L I U L X X X P L K.n.F F F X X ",
"F F X L.a.a.a.L L X X X K.K.  ~ ....U k.k.s.s.X F F L L X L ~ Y * L P X a.a.L L _ [ F F F F X . X . k._ X Y Y       F F K.a.a.G L L L L X X X F F L.K.F X F X L ",
"X X X L.L.a.a.X X X X X K.K.  . ....L k.k.s.s.a.P _ P F F L . Y Y L I G s.s._ _ / / F F F X P X X P.P.P.X Y ....  F F G L.s.s.a.X L L X X X X F F L.L.X X X X L ",
"X X X L.K.a.a.X X X U L X X     Y ~ _ k.P.X a.a.L ) L L | | X o Y F F P d.d._ L F X L L X X . .   F b.K.F X ....  G G L j.k.s.a.G I L X X X X X X K.K.X L L X X ",
"X X X L.K.a.a.a.X F P L X X X X Y ~ _ P.L.X a.a.a.X X L | p.L * Y ~ I P U P L X F L _ _ _ L     L L P.P.F X Y *   G X L c.j.a.s.L X L | ^ X X L L K.K.X L L G F ",
"X X X X K.K.a.a.X F L _ L X X L ~ Y Y L.L.X P s.a.X X X X ) ....Y ~ L L P X F F F } } _ O..     _ _ P.P.F L ~ Y . _ L X L.L.a.s.s.L | o.) X X L L L.L.X X X G F ",
"X X X X K.K.a.a.a.X U _ L X X P I Y Y L.L.X P s.a.a.X U _ _ L L ~ ~ L L P F F F F [ O._ L     F P _ P.L.F L ..~ ~ _ _ L L.K._ d.a._ | L X G X X X L.L.L.X G F X ",
"X X X X L.L.X a.a.U L F F X X F F Y Y P.z.P.X X s.s.P @.@._ G X ~ ~ ~ X X G X X F F P P   . . X X L L X F _ O.~ Y G I L b.n._ d.a.L I G X X G X X X L.P.L F X X ",
"X X X X L.L.X a.a.L L X F X X X F Y Y P z.P.X X s.U.U.} [   . . Y Y X X X X P L X P L X   G _ X L L X F F _ _ Y Y F X X L.b.b.a.s.s.L L G G X L _ L L.c.} X X X ",
"F F X X L.L.X a.a.a.X X X X L L X Y ~ ..P.P.P X X d.d.G F     G X Y * X L L P L F P L     . P X P P F F F G F Y Y G F G I P.g.X s.s.L L X X X _ } P L.k._ L L G ",
"P U X X L.L.X X a.a.F X X X P P X X ~ ..z.z.P P L a.a.X P . . L L ..~ X _ | P P P G X . . F X G F G F F P P       L L X L P.h.X a.a.X X X X X L P X L.L.X L L P ",
"L L X X L.L.F X a.a.a.X X F F X L L ~ ~ P.P.X L L X X X L . . L L X...L ) ) P P L L . X . G X G F F F F P L     L _ L X F j.j.X s.s.a.L P X X X X X L.K.G X X L ",
"X X X X L.L.X X X s.s.X X F F X _ _ ~ ~ L.K.X X X X X X X . . X X P P L L X G X X L .   X G F G F P L F P _ .   L L X X G L.P.X L s.a.L P G X X X P P.K.X X X F ",
"X L L X L.L.F F F s.d.X F F P P L L X X L.K.G X X X X L L L _ L L L X X X X X X _ @.I G L X G G F _ _ X L _ .   X X L } ^ j.P.X F a.a.G X G X X X P j.L.X X L L ",
"X L L X L.L.F F F U P X F X P L G X X X X X X X X X L } ) X L L L _ L X L L X P | i.@._ L X X P P P L X X F     X L } @./ j.P.I I X X X X X X X X X L.L.L L L L ",
"X X X X L.L.X X F W _ P X X X X I L X G G X X L _ L L _ L X X X X P L X L L X I L L I L L X L | _ G X F F X     X L ) L L c.k.I L } } X X X X L I G L.L.I L G G ",
"X X X X L.L.X L L P | | P X X X L L X X G X X I _ L X X X G X X P P X X X _ _ X X X X I _ L ) | P P P F F X X L L X X L _ } _ X F } O.X X X ^ | L X X X G X X G ",
"X X X X L.L.X L L X @.p.P X X L L X L L X X X G X X L L X G X X I I X X X _ _ X G P L X L L L L X P P X F G F P L X X ) _ ^ ^ P _ L X X X X _ _ X X X L L X X X ",
"X X X X X X X X X X | | X X X L L X L _ L L L X X X L L X X X X X ' _ X P L X X X L _ L X X X X X X X X F H F F _ _ X L _ ^ L L _ I X X X X X X G G X L L X X X "
};
